<?xml version="1.0" standalone="no"?>
<!DOCTYPE svg PUBLIC "-//W3C//DTD SVG 20010904//EN"
 "http://www.w3.org/TR/2001/REC-SVG-20010904/DTD/svg10.dtd">
<svg version="1.0" xmlns="http://www.w3.org/2000/svg"
 width="512.000000pt" height="512.000000pt" viewBox="0 0 512.000000 512.000000"
 preserveAspectRatio="xMidYMid meet">
<metadata>
Created by potrace 1.14, written by Peter Selinger 2001-2017
</metadata>
<g transform="translate(0.000000,512.000000) scale(0.100000,-0.100000)"
fill="#000000" stroke="none">
<path d="M425 5104 c-197 -48 -356 -206 -409 -410 -14 -53 -15 -281 -13 -2154
l2 -2095 22 -62 c67 -188 215 -323 407 -368 87 -21 4179 -22 4247 -2 24 8 46
14 49 15 52 11 147 63 202 111 69 61 141 173 164 258 18 66 19 144 19 2178 l0
2110 -27 66 c-67 167 -184 282 -348 341 l-65 23 -2095 2 c-1801 1 -2103 -1
-2155 -13z"/>
</g>
</svg>
